<svg 
 xmlns="http://www.w3.org/2000/svg"
 xmlns:xlink="http://www.w3.org/1999/xlink"
 width="186px" height="56px">
<defs>
<linearGradient id="PSgrad_0" x1="0%" x2="100%" y1="0%" y2="0%">
  <stop offset="0%" stop-color="rgb(43,191,49)" stop-opacity="1" />
  <stop offset="100%" stop-color="rgb(150,210,80)" stop-opacity="1" />
</linearGradient>

</defs>
<path fill-rule="evenodd"  fill="rgb(119, 195, 31)"
 d="M3.000,-0.000 L183.000,-0.000 C184.657,-0.000 186.000,1.343 186.000,3.000 L186.000,53.000 C186.000,54.657 184.657,56.000 183.000,56.000 L3.000,56.000 C1.343,56.000 -0.000,54.657 -0.000,53.000 L-0.000,3.000 C-0.000,1.343 1.343,-0.000 3.000,-0.000 Z"/>
<path fill="url(#PSgrad_0)"
 d="M3.000,-0.000 L183.000,-0.000 C184.657,-0.000 186.000,1.343 186.000,3.000 L186.000,53.000 C186.000,54.657 184.657,56.000 183.000,56.000 L3.000,56.000 C1.343,56.000 -0.000,54.657 -0.000,53.000 L-0.000,3.000 C-0.000,1.343 1.343,-0.000 3.000,-0.000 Z"/>
</svg>