<svg 
 xmlns="http://www.w3.org/2000/svg"
 xmlns:xlink="http://www.w3.org/1999/xlink"
 width="295px" height="150px">
<defs>
<linearGradient id="PSgrad_0" x1="0%" x2="0%" y1="0%" y2="100%">
  <stop offset="0%" stop-color="rgb(31,162,255)" stop-opacity="1" />
  <stop offset="40%" stop-color="rgb(25,189,253)" stop-opacity="1" />
  <stop offset="100%" stop-color="rgb(18,216,250)" stop-opacity="1" />
</linearGradient>

</defs>
<path fill-rule="evenodd"  fill="rgb(255, 255, 255)"
 d="M8.000,-0.002 L287.000,-0.002 C291.418,-0.002 295.000,3.580 295.000,7.999 L295.000,109.999 C295.000,109.999 221.583,149.998 148.000,149.998 C74.084,149.998 -0.000,109.999 -0.000,109.999 L-0.000,7.999 C-0.000,3.580 3.582,-0.002 8.000,-0.002 Z"/>
<path fill="url(#PSgrad_0)"
 d="M8.000,-0.002 L287.000,-0.002 C291.418,-0.002 295.000,3.580 295.000,7.999 L295.000,109.999 C295.000,109.999 221.583,149.998 148.000,149.998 C74.084,149.998 -0.000,109.999 -0.000,109.999 L-0.000,7.999 C-0.000,3.580 3.582,-0.002 8.000,-0.002 Z"/>
</svg>